<svg version="1.1" id="Layer_1" xmlns="http://www.w3.org/2000/svg" xmlns:xlink="http://www.w3.org/1999/xlink" x="0px" y="0px" viewBox="90.6 -69.3 107.1 158.3" style="enable-background:new 90.6 -69.3 107.1 158.3;" xml:space="preserve">
 <style type="text/css">
  .st0{fill:#FC8019;}
 </style>
 <g>
  <path class="st0" d="M144.4,89c-0.1-0.1-0.2-0.2-0.3-0.3c-1.9-2.4-13.7-17.2-25.8-36.1c-3.6-6-6-10.8-5.5-12
		c1.2-3.2,22.2-4.9,28.6-2c2,0.9,1.9,2,1.9,2.7c0,2.9-0.1,10.7-0.1,10.7c0,1.6,1.3,2.9,2.9,2.9c1.6,0,2.9-1.3,2.9-2.9V32.6l0,0
		c0-1.7-1.8-2.1-2.2-2.2c-3.4,0-10.2,0-17.6,0c-16.2,0-19.9,0.7-22.6-1.1c-6-3.9-15.7-30.2-16-45c-0.3-20.9,12.1-39,29.5-47.9
		c7.3-3.7,15.5-5.7,24.2-5.7c27.7-0.2,50.4,20.6,53.4,47.4c0,0,0,0,0,0.1c0.6,6.5-35.1,7.9-42.2,6c-1.1-0.3-1.4-1.4-1.4-1.9
		c0-4.9,0-18.8,0-18.8c0-1.6-1.3-2.9-2.9-2.9l0,0c-1.6,0-2.9,1.3-2.9,2.9l0.1,25.5c0,1.6,1.4,2,1.8,2.1c4,0,13.4,0,22.2,0
		c11.8,0,16.8,1.4,20.1,3.9c2.2,1.7,3,4.9,2.3,9C188,41.2,146,87.1,144.4,89z">
  </path>
 </g>
</svg>